<?xml version="1.0" encoding="UTF-8"?><svg id="Lag_1" xmlns="http://www.w3.org/2000/svg" width="337.2mm" height="27.26mm" viewBox="0 0 955.83 77.26"><defs><style>.cls-1{fill:#b2b1b1;}.cls-2{fill:#95c11f;}</style></defs><path id="Rectangle_28" class="cls-1" d="m46.54,5.13h862.76c20.3,0,36.75,15,36.75,33.5h0c0,18.5-16.45,33.5-36.75,33.5H46.54c-20.3,0-36.75-15-36.75-33.5h0C9.79,20.13,26.24,5.13,46.54,5.13Z"/><path id="Rectangle_29" class="cls-2" d="m41.39,5.13h533.39c17.45,0,31.6,15,31.6,33.5h0c0,18.5-14.15,33.5-31.6,33.5H41.39c-17.45,0-31.6-15-31.6-33.5h0c0-18.5,14.15-33.5,31.6-33.5Z"/></svg>