<?xml version="1.0" encoding="UTF-8"?><svg id="Lag_1" xmlns="http://www.w3.org/2000/svg" width="337.2mm" height="27.26mm" viewBox="0 0 955.83 77.26"><defs><style>.cls-1{fill:#b2b1b1;}.cls-2{fill:#95c11f;}</style></defs><path id="Rectangle_28" class="cls-1" d="m50.03,5.04h862.76c20.3,0,36.75,15,36.75,33.5h0c0,18.5-16.45,33.5-36.75,33.5H50.03c-20.3,0-36.75-15-36.75-33.5h0C13.28,20.04,29.73,5.04,50.03,5.04Z"/><path id="Rectangle_29" class="cls-2" d="m57.44,5.04h745.41c24.39,0,44.16,15,44.16,33.5h0c0,18.5-19.77,33.5-44.16,33.5H57.44c-24.39,0-44.16-15-44.16-33.5h0C13.28,20.04,33.05,5.04,57.44,5.04Z"/></svg>