<?xml version="1.0" encoding="UTF-8"?><svg id="Lag_1" xmlns="http://www.w3.org/2000/svg" width="205.04mm" height="27.72mm" viewBox="0 0 581.21 78.57"><defs><style>.cls-1{fill:#2a4798;}.cls-2{isolation:isolate;}</style></defs><g id="JULIE_PORTFOLIE" class="cls-2"><g class="cls-2"><path class="cls-1" d="m23.46,46.76c0,4.37-1.15,7.83-3.45,10.39-2.3,2.55-5.71,3.83-10.21,3.83-1.61,0-3.12-.16-4.52-.48-1.4-.32-2.7-.76-3.9-1.31l.62-6.07c2.21,1.33,4.62,2,7.25,2,2.39,0,4.27-.78,5.62-2.35,1.36-1.56,2.04-4.09,2.04-7.59V8.94h6.56v37.82Z"/><path class="cls-1" d="m66.04,8.94h6.42v33.33c0,5.84-1.6,10.42-4.8,13.73-3.2,3.31-7.67,4.97-13.42,4.97s-10.31-1.66-13.53-4.97c-3.22-3.31-4.83-7.89-4.83-13.73V8.94h6.63v32.23c0,4.83.98,8.41,2.93,10.73,1.96,2.32,4.87,3.49,8.73,3.49s6.92-1.12,8.9-3.35c1.98-2.23,2.97-5.49,2.97-9.76V8.94Z"/><path class="cls-1" d="m85.57,8.94h6.62v45.55h21.67v5.59h-28.29V8.94Z"/><path class="cls-1" d="m122.15,8.94h6.62v51.14h-6.62V8.94Z"/><path class="cls-1" d="m142.58,8.94h28.85l-.62,5.52h-21.6v15.8h17.53v5.52h-17.53v18.77h23.05v5.52h-29.68V8.94Z"/></g><g class="cls-2"><path class="cls-1" d="m195.99,8.94h14.35c4.23,0,7.94.59,11.11,1.76,3.17,1.17,5.65,2.93,7.42,5.28,1.77,2.35,2.66,5.31,2.66,8.9s-.89,6.5-2.66,8.87c-1.77,2.37-4.24,4.14-7.42,5.31-3.17,1.17-6.88,1.76-11.11,1.76h-3.59v19.25h-10.77V8.94Zm21.91,21.77c1.73-1.36,2.59-3.3,2.59-5.83s-.86-4.53-2.59-5.87c-1.73-1.33-4.13-2-7.21-2h-3.93v15.73h3.93c3.08,0,5.49-.68,7.21-2.04Z"/><path class="cls-1" d="m240.06,47.96c-1.73-4.07-2.59-8.75-2.59-14.04s.89-9.53,2.66-13.42c1.77-3.89,4.39-6.94,7.87-9.14,3.47-2.21,7.79-3.31,12.94-3.31s9.47,1.1,12.94,3.31c3.47,2.21,6.1,5.26,7.87,9.14,1.77,3.89,2.66,8.36,2.66,13.42s-.86,9.97-2.59,14.04c-1.73,4.07-4.32,7.26-7.8,9.56-3.47,2.3-7.83,3.45-13.08,3.45s-9.6-1.15-13.08-3.45c-3.47-2.3-6.07-5.49-7.8-9.56Zm33.09-14.04c0-5.47-1.05-9.79-3.14-12.94-2.09-3.15-5.12-4.73-9.08-4.73s-6.92,1.58-9.04,4.73c-2.12,3.15-3.17,7.46-3.17,12.94,0,5.75,1.06,10.33,3.17,13.73,2.12,3.41,5.13,5.11,9.04,5.11s6.98-1.7,9.08-5.11c2.09-3.4,3.14-7.98,3.14-13.73Z"/><path class="cls-1" d="m293.51,8.94h14.42c4.09,0,7.73.53,10.9,1.59,3.17,1.06,5.67,2.65,7.49,4.76,1.82,2.12,2.73,4.79,2.73,8.01s-.84,5.73-2.52,7.8c-1.68,2.07-4.01,3.61-7,4.62,2.67,1.43,5.16,4.07,7.49,7.94,2.32,3.86,4.8,9.34,7.42,16.42h-12.08c-1.66-4.37-3.15-7.88-4.49-10.52-1.33-2.65-2.61-4.66-3.83-6.04-1.22-1.38-2.51-2.31-3.86-2.79-1.36-.48-2.91-.73-4.66-.73h-1.24v20.08h-10.77V8.94Zm21.95,21.22c1.84-1.4,2.76-3.3,2.76-5.69s-.92-4.29-2.76-5.56c-1.84-1.27-4.21-1.9-7.11-1.9h-4.07v15.25h4.07c2.9,0,5.27-.7,7.11-2.1Z"/><path class="cls-1" d="m349.06,17.29h-14.63v-8.35h40.03v8.35h-14.63v42.79h-10.77V17.29Z"/><path class="cls-1" d="m381.15,8.94h31.61l-.97,8.28h-19.88v12.08h16.15v8.28h-16.15v22.5h-10.77V8.94Z"/><path class="cls-1" d="m419.76,47.96c-1.73-4.07-2.59-8.75-2.59-14.04s.88-9.53,2.66-13.42c1.77-3.89,4.39-6.94,7.87-9.14,3.47-2.21,7.79-3.31,12.94-3.31s9.47,1.1,12.94,3.31,6.1,5.26,7.87,9.14c1.77,3.89,2.66,8.36,2.66,13.42s-.86,9.97-2.59,14.04c-1.72,4.07-4.33,7.26-7.8,9.56-3.47,2.3-7.83,3.45-13.08,3.45s-9.6-1.15-13.08-3.45c-3.47-2.3-6.07-5.49-7.8-9.56Zm33.09-14.04c0-5.47-1.05-9.79-3.14-12.94-2.09-3.15-5.12-4.73-9.08-4.73s-6.92,1.58-9.04,4.73c-2.12,3.15-3.17,7.46-3.17,12.94,0,5.75,1.06,10.33,3.17,13.73,2.12,3.41,5.13,5.11,9.04,5.11s6.98-1.7,9.08-5.11c2.09-3.4,3.14-7.98,3.14-13.73Z"/><path class="cls-1" d="m473.21,8.94h10.77v42.79h20.29v8.35h-31.06V8.94Z"/><path class="cls-1" d="m510.89,8.94h10.77v51.14h-10.77V8.94Z"/><path class="cls-1" d="m533.29,47.96c-1.73-4.07-2.59-8.75-2.59-14.04s.88-9.53,2.66-13.42c1.77-3.89,4.39-6.94,7.87-9.14,3.47-2.21,7.79-3.31,12.94-3.31s9.47,1.1,12.94,3.31,6.1,5.26,7.87,9.14c1.77,3.89,2.66,8.36,2.66,13.42s-.86,9.97-2.59,14.04c-1.72,4.07-4.33,7.26-7.8,9.56-3.47,2.3-7.83,3.45-13.08,3.45s-9.6-1.15-13.08-3.45c-3.47-2.3-6.07-5.49-7.8-9.56Zm33.09-14.04c0-5.47-1.05-9.79-3.14-12.94-2.09-3.15-5.12-4.73-9.08-4.73s-6.92,1.58-9.04,4.73c-2.12,3.15-3.17,7.46-3.17,12.94,0,5.75,1.06,10.33,3.17,13.73,2.12,3.41,5.13,5.11,9.04,5.11s6.98-1.7,9.08-5.11c2.09-3.4,3.14-7.98,3.14-13.73Z"/></g></g></svg>