<?xml version="1.0" encoding="UTF-8"?><svg id="Lag_1" xmlns="http://www.w3.org/2000/svg" width="174.24mm" height="144.02mm" xmlns:xlink="http://www.w3.org/1999/xlink" viewBox="0 0 493.92 408.24"><defs><style>.cls-1{fill:#fff;}.cls-2{isolation:isolate;}</style></defs><g id="JULIE_PORTFOLIE" class="cls-2"><image width="2058" height="1701" transform="scale(.24)" xlink:href="logo21.png"/><g class="cls-2"><path class="cls-1" d="m106.5,161.03c0,4.37-1.15,7.83-3.45,10.39-2.3,2.55-5.71,3.83-10.21,3.83-1.61,0-3.12-.16-4.52-.48-1.4-.32-2.7-.76-3.9-1.31l.62-6.07c2.21,1.33,4.62,2,7.25,2,2.39,0,4.27-.78,5.62-2.35,1.36-1.56,2.04-4.09,2.04-7.59v-36.23h6.56v37.82Z"/><path class="cls-1" d="m149.08,123.21h6.42v33.33c0,5.84-1.6,10.42-4.8,13.73-3.2,3.31-7.67,4.97-13.42,4.97s-10.31-1.66-13.53-4.97c-3.22-3.31-4.83-7.89-4.83-13.73v-33.33h6.63v32.23c0,4.83.98,8.41,2.93,10.73,1.96,2.32,4.87,3.49,8.73,3.49s6.92-1.12,8.9-3.35c1.98-2.23,2.97-5.49,2.97-9.76v-33.33Z"/><path class="cls-1" d="m168.61,123.21h6.62v45.55h21.67v5.59h-28.29v-51.14Z"/><path class="cls-1" d="m205.18,123.21h6.62v51.14h-6.62v-51.14Z"/><path class="cls-1" d="m225.61,123.21h28.85l-.62,5.52h-21.6v15.8h17.53v5.52h-17.53v18.77h23.05v5.52h-29.68v-51.14Z"/></g><g class="cls-2"><path class="cls-1" d="m56.73,193.17h13.79c4.07,0,7.62.64,10.67,1.92s5.43,3.21,7.13,5.77c1.7,2.57,2.55,5.81,2.55,9.74s-.85,7.11-2.55,9.7c-1.7,2.59-4.08,4.53-7.13,5.81-3.05,1.28-6.61,1.92-10.67,1.92h-3.45v21.06h-10.34v-55.92Zm21.05,23.81c1.66-1.48,2.49-3.61,2.49-6.38s-.83-4.96-2.49-6.42c-1.66-1.46-3.97-2.19-6.93-2.19h-3.78v17.21h3.78c2.96,0,5.27-.74,6.93-2.23Z"/><path class="cls-1" d="m99.06,235.85c-1.66-4.45-2.49-9.57-2.49-15.36s.85-10.43,2.55-14.68c1.7-4.25,4.22-7.58,7.56-10,3.34-2.42,7.48-3.62,12.43-3.62s9.09,1.21,12.43,3.62c3.34,2.42,5.86,5.75,7.56,10,1.7,4.25,2.55,9.14,2.55,14.68s-.83,10.91-2.49,15.36-4.16,7.94-7.49,10.45c-3.34,2.52-7.53,3.77-12.56,3.77s-9.23-1.26-12.56-3.77c-3.34-2.52-5.83-6-7.49-10.45Zm31.79-15.36c0-5.99-1.01-10.7-3.02-14.15-2.01-3.45-4.92-5.17-8.72-5.17s-6.65,1.72-8.69,5.17c-2.03,3.45-3.05,8.16-3.05,14.15,0,6.29,1.02,11.3,3.05,15.02,2.03,3.72,4.93,5.58,8.69,5.58s6.71-1.86,8.72-5.58c2.01-3.72,3.02-8.73,3.02-15.02Z"/><path class="cls-1" d="m150.41,193.17h13.86c3.93,0,7.43.58,10.48,1.74,3.05,1.16,5.45,2.89,7.19,5.21,1.75,2.31,2.62,5.23,2.62,8.75s-.81,6.26-2.42,8.53c-1.61,2.26-3.86,3.95-6.73,5.06,2.56,1.56,4.96,4.45,7.19,8.68,2.23,4.23,4.61,10.21,7.13,17.96h-11.6c-1.59-4.78-3.03-8.62-4.31-11.51-1.28-2.89-2.51-5.09-3.68-6.6-1.17-1.51-2.41-2.53-3.71-3.06-1.3-.53-2.8-.79-4.48-.79h-1.19v21.96h-10.34v-55.92Zm21.08,23.21c1.77-1.53,2.65-3.61,2.65-6.23s-.88-4.69-2.65-6.08c-1.77-1.38-4.04-2.08-6.83-2.08h-3.91v16.68h3.91c2.78,0,5.06-.77,6.83-2.3Z"/><path class="cls-1" d="m203.79,202.31h-14.06v-9.13h38.46v9.13h-14.06v46.79h-10.34v-46.79Z"/><path class="cls-1" d="m234.62,193.17h30.37l-.93,9.06h-19.09v13.21h15.51v9.06h-15.51v24.6h-10.34v-55.92Z"/><path class="cls-1" d="m271.71,235.85c-1.66-4.45-2.49-9.57-2.49-15.36s.85-10.43,2.55-14.68c1.7-4.25,4.22-7.58,7.56-10,3.34-2.42,7.48-3.62,12.43-3.62s9.09,1.21,12.43,3.62c3.34,2.42,5.86,5.75,7.56,10,1.7,4.25,2.55,9.14,2.55,14.68s-.83,10.91-2.49,15.36-4.16,7.94-7.49,10.45c-3.34,2.52-7.53,3.77-12.56,3.77s-9.23-1.26-12.56-3.77c-3.34-2.52-5.83-6-7.49-10.45Zm31.79-15.36c0-5.99-1.01-10.7-3.02-14.15-2.01-3.45-4.92-5.17-8.72-5.17s-6.65,1.72-8.69,5.17-3.05,8.16-3.05,14.15c0,6.29,1.02,11.3,3.05,15.02,2.03,3.72,4.93,5.58,8.69,5.58s6.71-1.86,8.72-5.58c2.01-3.72,3.02-8.73,3.02-15.02Z"/><path class="cls-1" d="m323.06,193.17h10.34v46.79h19.49v9.13h-29.84v-55.92Z"/><path class="cls-1" d="m359.26,193.17h10.34v55.92h-10.34v-55.92Z"/><path class="cls-1" d="m380.78,235.85c-1.66-4.45-2.49-9.57-2.49-15.36s.85-10.43,2.55-14.68c1.7-4.25,4.22-7.58,7.56-10,3.34-2.42,7.48-3.62,12.43-3.62s9.09,1.21,12.43,3.62c3.34,2.42,5.86,5.75,7.56,10,1.7,4.25,2.55,9.14,2.55,14.68s-.83,10.91-2.49,15.36-4.16,7.94-7.49,10.45c-3.34,2.52-7.53,3.77-12.56,3.77s-9.23-1.26-12.56-3.77c-3.34-2.52-5.83-6-7.49-10.45Zm31.79-15.36c0-5.99-1.01-10.7-3.02-14.15-2.01-3.45-4.92-5.17-8.72-5.17s-6.65,1.72-8.69,5.17-3.05,8.16-3.05,14.15c0,6.29,1.02,11.3,3.05,15.02,2.03,3.72,4.93,5.58,8.69,5.58s6.71-1.86,8.72-5.58c2.01-3.72,3.02-8.73,3.02-15.02Z"/></g></g></svg>