<?xml version="1.0" encoding="UTF-8"?><svg xmlns="http://www.w3.org/2000/svg" width="159.95mm" height="125.08mm" viewBox="0 0 453.39 354.55"><defs><style>.cls-1{fill:none;stroke-width:11px;}.cls-1,.cls-2{stroke:#312783;stroke-miterlimit:10;}.cls-2{fill:#2d2e83;stroke-width:6px;}</style></defs><g id="Lag_2"><circle class="cls-1" cx="244.99" cy="166.38" r="155.77"/></g><g id="Lag_3"><path class="cls-2" d="m130.41,55.63c.16-1.51-.24-6.79-24.89-16.84-6.35-2.59-17.23-6.69-37.08-11.55-18.19-4.46-26.46-5.28-33.85-5.38-14.21-.2-20.39,2.36-24.61,6.15-4.01,3.6-5.66,7.79-6.53,10.09-2.1,5.53-4.6,16.65,6.53,43.75,1.23,2.99,5.31,12.55,15.38,30,2.93,5.08,11.91,20.39,26.15,40,7.61,10.47,17.39,23.85,32.31,40,4.86,5.26,17.06,18.17,34.61,33.08,14.81,12.57,26.68,20.84,37.69,28.46,12.2,8.45,28.32,19.53,50.77,31.54,20.38,10.9,36.61,17.55,53.85,24.61,14.9,6.11,26.47,10.28,38.46,14.62,18.62,6.72,27.92,10.08,39.23,13.08,21.05,5.57,37.29,7.27,41.54,7.69,25.92,2.56,40.51,3.93,54.61-4.62,4.01-2.43,13.39-8.11,16.49-18.62,2.37-8.03-.29-15.66-5.72-30.61-2.43-6.68-5.7-15.55-12.2-26.47-7.08-11.89-13.6-18.66-26.65-32.2-7.43-7.71-12.88-12.56-16.24-11.02-1.29.59-1.39,1.72-4.17,8.34-3.91,9.28-4.75,9.51-4.61,11.61.35,5.16,5.58,5.56,10.78,12.81,1.13,1.57,7.61,10.59,5.38,20-1.89,7.98-9.11,12.37-11.54,13.85-11.88,7.22-25.51,4.93-35.38,3.08-28.39-5.33-42.59-7.99-60.77-14.62-24.76-9.03-51.29-18.69-83.08-39.23-22.3-14.41-37.58-27.96-48.46-37.69-24.78-22.16-39.86-40.63-43.08-44.61-12.28-15.19-18.06-24.97-29.23-43.85-13.69-23.15-16.46-32.16-13.08-40,2.27-5.26,7.75-11.27,14.62-12.31,13.11-1.99,23.45,15.27,31.34,11.07,1.5-.8,3.42-3.22,7.27-8.07,2.67-3.36,4-5.04,4.12-6.15Z"/></g></svg>